<svg width="381" height="119" viewBox="0 0 381 119" fill="none" xmlns="http://www.w3.org/2000/svg">
<path fill-rule="evenodd" clip-rule="evenodd" d="M50.6004 33.5L65.9004 1.99998H95.3004L61.4004 66.5C61.3004 66.7 61.1004 67.1 61.1004 67.5V95.5H34.3004V68.1C34.3004 43.5 22.4004 29.5 0.600403 28.1L3.6004 0.0999756C24.8004 2.29998 42.5004 10.5 50.6004 33.5ZM287.6 65.4V2H260.8V72.5C260.8 86.8 269.1 96.1 284.9 96.2H294.7L297 75.4C290.3 75.3 287.6 71.6 287.6 65.4ZM151.6 69.8V61.3C151.6 38.7 141.1 26.2 121.9 24.6H120.1C101.2 24.6 87.8996 33.2 86.1996 50.3H111C111.5 46.7 113.6 43.4 118.4 43.4C123.4 43.4 125.3 46.4 125.3 51.2V55.9C125.3 55.9 121.3 55.4 116.8 55.4C98.2996 55.4 83.2996 63.7 83.2996 78.1C83.2996 90.3 93.9996 96.2 106.7 96.2C123.5 96.2 130.2 85.5 130.2 85.5C133.9 89.9 140.5 94.9 152.9 95.5L160.1 79.6C155.3 79.7 151.6 76.3 151.6 69.8ZM125.3 68.8C125.3 74.2 119.8 79.6 113.2 79.6C109.9 79.6 107.4 77.7 107.4 74.3C107.4 69.4 112.4 66.9 120.1 66.9C123.3 66.9 125.2 67.4 125.2 67.4V68.8H125.3ZM217.098 24.6C204.298 24.6 198.098 29.4 194.498 32.8V25.2H167.698V118.9H194.498V89.7C197.798 92.1 204.398 96.2 216.598 96.2C237.098 96.2 252.198 82.3 252.198 60.5C252.198 38.7 238.098 24.6 217.098 24.6ZM209.598 76.8C200.098 76.8 193.798 70.4 193.798 60.5C193.798 50.6 200.098 43.9 209.598 43.9C219.098 43.9 225.398 50.6 225.398 60.5C225.398 70.4 219.098 76.8 209.598 76.8ZM371.8 61.3V69.8C371.8 76.3 375.5 79.7 380.4 79.6L373.2 95.5C360.8 94.9 354.2 89.9 350.5 85.5C350.5 85.5 343.8 96.2 327 96.2C314.3 96.2 303.6 90.3 303.6 78.1C303.6 63.7 318.6 55.4 337 55.4C341.5 55.4 345.5 55.9 345.5 55.9V51.2C345.5 46.4 343.6 43.4 338.6 43.4C333.8 43.4 331.7 46.7 331.2 50.3H306.4C308.1 33.2 321.4 24.6 340.3 24.6H342.1C361.3 26.2 371.8 38.7 371.8 61.3ZM340.4 66.9C332.7 66.9 327.7 69.4 327.7 74.3C327.7 77.6 330.1 79.5 333.4 79.6H333.6C340.1 79.5 345.5 74.1 345.5 68.8V67.4C345.5 67.4 343.7 66.9 340.6 66.9H340.4Z" fill="#717171"/>
</svg>
